<svg width="62" height="60" viewBox="0 0 62 60" fill="none" xmlns="http://www.w3.org/2000/svg">
<g clip-path="url(#clip0_1_2)">
<path d="M33.0376 17.6856C31.3739 17.587 29.5846 17.4066 27.9126 17.5883C26.5304 17.7386 25.2991 18.4052 24.0376 18.9356C20.9231 20.2451 18.0556 23.075 16.7946 26.1856C15.552 29.2506 15.1211 33.3417 16.0654 36.5328C17.0712 39.9316 20.0872 43.0096 23.3571 44.3175C27.584 46.0083 32.4374 46.3576 36.6418 44.4356C41.3598 42.2787 45.0105 37.8738 46.2876 32.8661C47.5315 27.9887 46.2145 22.9697 42.6001 19.4356C41.4559 18.3168 40.3925 17.2561 39.0654 16.3453C37.8479 15.5097 36.6722 14.5728 35.1626 14.4356" stroke="#7CBCCD" stroke-width="30" stroke-linecap="round"/>
<mask id="mask0_1_2" style="mask-type:alpha" maskUnits="userSpaceOnUse" x="0" y="-1" width="62" height="62">
<path d="M33.0376 17.6856C31.3739 17.587 29.5846 17.4066 27.9126 17.5883C26.5304 17.7386 25.2991 18.4052 24.0376 18.9356C20.9231 20.2451 18.0556 23.075 16.7946 26.1856C15.552 29.2506 15.1211 33.3417 16.0654 36.5328C17.0712 39.9316 20.0872 43.0096 23.3571 44.3175C27.584 46.0083 32.4374 46.3576 36.6418 44.4356C41.3598 42.2787 45.0105 37.8738 46.2876 32.8661C47.5315 27.9887 46.2145 22.9697 42.6001 19.4356C41.4559 18.3168 40.3925 17.2561 39.0654 16.3453C37.8479 15.5097 36.6722 14.5728 35.1626 14.4356" stroke="#7CBCCD" stroke-width="30" stroke-linecap="round"/>
</mask>
<g mask="url(#mask0_1_2)">
<path d="M45.6626 6.81055C45.7636 7.61846 46.2276 8.57597 45.6487 9.38C44.2425 11.3331 41.8742 12.5173 39.768 13.5703L39.7598 13.5744C38.0796 14.4145 36.1585 15.223 34.3501 15.7481C33.5716 15.9741 32.5983 16.3057 31.8848 16.7133C31.3261 17.0326 30.8367 17.3251 30.5654 17.9356C29.9952 19.2185 31.5449 19.5269 32.4126 19.8106C33.4308 20.1434 34.7378 19.9356 35.7946 19.9356C37.3166 19.9356 38.778 19.5264 40.2876 19.4425C41.345 19.3838 44.0376 18.8588 44.0376 20.4981C44.0376 21.1496 43.8796 21.419 43.2946 21.7481C42.1716 22.3797 41.0681 23.0799 39.9196 23.6925C38.7063 24.3396 37.1626 25.5544 37.1626 26.9981C37.1626 27.6345 37.7024 28.2504 38.0376 28.7828C38.3196 29.2307 38.4178 29.8157 38.7876 30.1856C39.7873 31.1853 42.0011 31.0846 43.2598 30.8383C45.0432 30.4894 46.9182 29.1163 48.2946 27.9981C49.2469 27.2243 49.8088 26.1294 50.3432 25.0606C50.544 24.6588 50.5833 24.1636 50.7876 23.755C51.0534 23.2235 51.4119 22.8119 51.6904 22.3106C52.3458 21.1308 53.1497 19.9626 53.9126 18.8383C54.5656 17.8761 55.5722 16.9948 56.4404 16.2133C56.8988 15.8008 57.239 15.0849 57.7876 14.8106M57.4126 14.9356C57.3198 14.0997 56.5229 13.3559 56.1348 12.6856C55.5121 11.61 54.4143 10.7584 53.5793 9.85917C53.02 9.25687 52.3634 8.68326 51.6626 8.255C50.4987 7.54369 49.2358 6.96821 48.0932 6.24111C47.5604 5.90209 46.7762 5.43555 46.1626 5.43555M8.28762 52.1856C8.61517 51.4895 8.81099 50.7534 9.10012 50.0467C9.54745 48.9532 9.69112 47.7971 10.1001 46.7064C10.452 45.7681 10.5105 44.6894 10.4923 43.608M10.4923 43.608C10.4776 42.7316 10.4126 41.8534 10.4126 41.0467C10.4126 40.0841 10.3485 39.0963 10.4196 38.1369C10.4982 37.0749 10.9204 36.2585 11.3501 35.3036C12.4332 32.8968 14.3614 31.5648 16.6765 30.3939C18.8451 29.2971 21.2277 28.4356 23.6626 28.4356C24.7516 28.4356 26.0376 28.4796 26.0376 29.8106C26.0376 30.2551 26.1626 30.6709 26.1626 31.13C26.1626 31.8504 25.9296 32.2904 25.6071 32.9356C25.0251 34.0994 24.5895 35.4948 24.6626 36.8106C24.7079 37.6258 27.2223 37.9489 27.8085 38.0606L27.8948 38.077C29.4508 38.3732 31.2724 38.72 32.6557 39.4981C33.8072 40.1458 34.4126 41.0485 34.4126 42.3383C34.4126 42.9356 34.4941 43.3985 34.1001 43.88C33.4765 44.6423 32.6685 44.9434 31.9057 45.5536C31.0536 46.2353 30.0567 46.8998 29.1409 47.5102L29.0654 47.5606C28.6604 47.8305 26.9693 48.3972 26.9126 48.9356C26.8752 49.2911 27.0358 49.687 26.7251 49.9356C26.3126 50.2656 25.7064 50.3792 25.1626 50.4286C23.0293 50.6226 20.1131 50.4324 18.5376 48.8106C17.5553 47.7994 17.2479 45.9086 16.9126 44.5675C16.7879 44.0684 16.1336 43.4072 15.8154 42.9911C15.4783 42.5503 14.9546 42.4691 14.5654 42.1578C14.2818 41.9309 13.8759 42.1064 13.6626 42.3731C13.3194 42.802 12.7085 42.8175 12.239 42.9981C11.8669 43.1412 11.1181 43.0962 10.8154 43.3383C10.7059 43.426 10.5982 43.5175 10.4923 43.608ZM10.4923 43.608C10.3707 43.7119 10.2515 43.8144 10.1348 43.9078C9.33712 44.546 8.23677 40.7693 8.16262 40.38C7.79334 38.4413 6.46509 37.113 5.13646 35.7844L5.13484 35.7828C4.57886 35.2268 3.91357 34.8115 3.35012 34.2481C2.58046 33.4784 2.31569 32.5953 2.10012 31.5606C1.74836 29.8721 2.35609 27.2523 3.41262 25.8939C4.04051 25.0866 4.85541 24.5919 5.73901 24.1161C6.84029 23.5231 7.90857 23.4389 9.10012 23.13C10.0841 22.8749 11.2361 22.996 12.1626 22.5328C12.586 22.3211 13.2242 21.9929 13.4404 21.5606C13.8022 20.837 13.6626 19.9745 13.6626 19.1856C13.6626 17.7933 13.3507 16.5884 14.114 15.2967C14.6534 14.3838 15.3713 13.432 16.4682 13.1578C16.9121 13.0468 18.0036 12.6743 18.4126 13.0606C18.898 13.5189 19.008 14.31 19.1626 14.9286C19.3953 15.8592 20.0376 16.6452 20.0376 17.63C20.0376 18.6649 19.4818 18.9011 18.7876 19.5606C18.3245 20.0005 17.6597 20.1492 17.4404 20.7828C17.293 21.2087 17.3755 21.5715 17.2807 21.9981C17.1147 22.7449 16.372 23.3276 16.1626 24.0606C16.0366 24.5016 15.7876 24.7986 15.7876 25.2828V26.505C15.7876 27.0581 15.6575 27.8758 15.4126 28.38C14.965 29.3015 13.9533 30.6835 12.8501 30.9286C12.1724 31.0792 12.8904 30.9069 13.3154 31.0328C13.5646 31.1066 14.8156 31.2545 14.9126 31.0606M21.5376 0.435555C21.5376 1.91784 20.1811 3.74294 20.9404 5.18556C21.3961 6.05144 23.0385 6.21556 23.8982 6.30147L23.9196 6.30361C24.643 6.37596 25.4154 6.43556 26.1071 6.43556C27.1777 6.43556 28.3974 5.88552 29.2598 5.31056C29.8244 4.93421 30.1802 4.70296 30.6348 4.21333C31.0379 3.77931 31.3124 3.20396 31.6001 2.6925C31.9811 2.01517 32.1095 0.991479 32.6348 0.407778C32.8606 0.156886 33.8272 -0.235355 34.0376 0.185555M59.1626 46.5606C59.1626 45.8859 59.2096 45.3271 58.5376 44.9911C57.0659 44.2553 55.2 44.0225 53.5654 44.0606C52.8378 44.0775 51.46 44.6468 50.9751 45.1856C50.754 45.4312 50.5376 45.713 50.5376 46.0606C50.5376 46.3621 50.6396 46.8106 50.2182 46.8106C48.9204 46.8106 47.1593 46.4945 45.9404 46.9633C45.1465 47.2687 45.3637 48.363 45.6348 48.9356C46.0037 49.7142 45.7886 50.3116 46.4751 50.9981C47.213 51.7359 48.7401 51.4356 49.6765 51.4356H52.4126C53.0685 51.4356 54.0741 51.6064 54.6001 51.1856C54.8648 50.9738 55.2675 51.0606 55.6071 51.0606C56.2703 51.0606 56.882 50.7132 57.4682 50.4356C58.6378 49.8815 60.0376 49.0222 60.0376 47.5606C60.0376 46.6939 59.9882 45.8282 60.1696 45.0119C60.2296 44.7419 60.3068 44.5109 60.2876 44.1856C60.2737 43.9495 59.9819 43.7094 59.9196 43.4911C59.8451 43.2305 59.5683 43.0497 59.3501 42.88C59.0495 42.6462 59.0901 42.5224 58.9404 42.1856C58.8316 41.9407 58.9126 41.5142 58.9126 41.2481C58.9126 40.8487 58.8434 40.6856 59.2876 40.6856M24.0376 3.18555C23.6165 3.18555 23.1626 3.11811 23.1626 3.62305C23.1626 4.00147 23.386 4.26828 23.7876 4.31055C24.6287 4.39909 25.4376 4.56055 26.3154 4.56055C27.4196 4.56055 28.3122 4.47778 29.3571 4.11611C30.1097 3.85558 31.0273 2.90786 29.9821 2.31055C29.6517 2.1218 29.4334 1.79419 29.1162 1.59461M29.1162 1.59461C29.0037 1.52385 28.8788 1.46918 28.7321 1.4425C27.9911 1.30778 27.0375 1.14551 26.2876 1.33833C25.5063 1.53925 24.7589 1.92212 24.0376 2.28278C23.8602 2.3715 23.4345 2.78118 23.5446 2.61611C23.7093 2.36907 24.1151 2.18778 24.3501 2.005C25.1294 1.39886 26.5161 1.09004 27.4751 0.942499C28.5383 0.778926 29.603 0.579983 30.6626 0.42861C31.1463 0.35951 32.215 0.273784 31.2182 0.817499C30.5155 1.20078 29.8392 1.41464 29.1162 1.59461ZM29.1162 1.59461C28.7786 1.67864 28.4308 1.75528 28.0654 1.83833C27.8786 1.88079 25.599 2.81636 25.7182 2.93555C25.8677 3.08511 26.8006 2.93555 27.0376 2.93555C27.739 2.93555 28.4046 2.94269 29.0932 2.8175C29.9203 2.66711 28.7841 3.10447 28.4682 3.24805C28.0643 3.43164 27.6566 3.54541 27.2321 3.65778C27.072 3.70014 26.2681 3.8008 26.5376 3.93555M47.6626 7.18555C47.6991 7.47718 48.4121 8.13324 48.614 8.38C49.087 8.95805 49.7999 9.63546 50.4751 9.93555C51.4 10.3466 52.552 11.2348 53.1626 11.9981C53.9295 12.9567 54.6626 13.3323 54.6626 14.6856C54.6626 15.6803 53.7236 16.9592 53.0376 17.6856C52.588 18.1617 52.2326 18.7474 51.8432 19.2481C51.3682 19.8588 50.7151 20.2519 50.2321 20.8731C49.5629 21.7334 49.1079 22.7557 48.3244 23.4909M48.3244 23.4909C48.2526 23.5583 48.1779 23.6233 48.1001 23.6856C47.7975 23.9276 47.228 24.4079 47.0376 24.7411C46.7525 25.2401 46.2516 25.4493 45.9126 25.8731C45.7656 26.0568 44.9469 26.6432 44.7251 26.6925C44.5166 26.7388 44.4034 27.0322 44.1626 27.0606C43.9923 27.0806 43.5132 27.2824 43.3501 27.3731C42.9585 27.5906 42.2373 27.6856 41.7876 27.6856C41.0851 27.6856 40.7876 27.8393 40.7876 27.0606C40.7876 26.8414 40.8618 26.4647 40.7807 26.2619C40.7427 26.1669 40.343 26.5558 40.2876 26.5883C39.8511 26.8451 39.1158 27.4474 39.4404 28.0606C39.6988 28.5487 40.6332 28.8387 41.1001 28.9425C42.0818 29.1607 43.1597 29.0606 44.1835 29.0606C45.7629 29.0606 46.6005 28.1836 46.9196 26.7481C47.1043 25.9169 47.536 25.1332 47.9126 24.38C48.0606 24.084 48.1865 23.7852 48.3244 23.4909ZM48.3244 23.4909C48.4405 23.2432 48.5649 22.9988 48.7182 22.7619C49.0101 22.3107 49.1524 21.7701 49.4682 21.3522C50.4932 19.9956 51.3239 18.0608 51.8154 16.4633C52.0902 15.5702 52.3556 13.831 51.6904 13.0328C50.9656 12.1631 50.4706 11.2257 49.5098 10.5606C48.6319 9.95276 47.6559 9.65247 46.6626 9.34688L46.6348 9.33833C46.4554 9.28311 44.946 8.89606 45.0446 9.24111C45.1449 9.5924 45.8857 10.1247 46.1626 10.3383C46.6485 10.7132 47.1213 11.0438 47.6487 11.3661C49.2063 12.318 49.5376 13.2257 49.5376 14.9981C49.5376 15.6327 49.427 16.198 49.2366 16.7247M49.2366 16.7247C48.9186 17.6046 48.3782 18.3769 47.7598 19.1856C47.338 19.7371 47.0728 20.4293 46.6941 21.0252M49.2366 16.7247C49.071 17.4805 48.8011 18.2186 48.4821 18.9147C48.1949 19.5413 47.5117 20.2844 46.6941 21.0252M49.2366 16.7247C49.3483 16.2149 49.4126 15.6971 49.4126 15.1786C49.4126 14.1538 48.9598 13.5541 48.4751 12.6925C48.2035 12.2096 47.5675 11.1856 46.9751 11.1856C46.504 11.1856 46.2141 13.3366 46.1696 13.6925C46.1023 14.231 46.024 14.7725 45.9322 15.31M46.6941 21.0252C46.5482 21.2549 46.3854 21.4702 46.1904 21.6578C45.7758 22.0564 45.464 22.5647 45.0654 22.9633C44.9308 23.098 44.7199 23.1688 44.6348 23.3106C44.584 23.3954 44.5523 23.4988 44.4751 23.5606C43.9154 24.0083 43.2526 24.2046 42.6071 24.4981C40.7751 25.3308 44.3073 23.1878 46.6941 21.0252ZM45.9322 15.31C45.8565 15.7535 45.7715 16.1943 45.6757 16.6284M45.9322 15.31C46.1584 15.3076 46.3874 15.2978 46.6128 15.308M45.9322 15.31C45.9025 15.3104 45.8728 15.3106 45.8432 15.3106C44.9719 15.3106 45.2169 14.7819 45.0307 14.13C44.8992 13.6699 44.1238 13.7116 43.7598 13.9356C42.6991 14.5883 41.2311 15.0385 40.0098 15.2828C38.8719 15.5104 37.6953 15.8804 36.5376 15.9356C36.1369 15.9546 35.8467 16.0204 35.4751 16.1856C35.2566 16.2827 34.8798 16.5485 34.6626 16.5606C34.1037 16.5916 33.7563 17.0282 33.7876 17.5606C33.8042 17.843 37.4044 17.6899 37.746 17.6856C38.7731 17.6726 39.9814 17.5732 40.9821 17.3731C41.5775 17.254 42.2066 17.0606 42.8154 17.0606H43.7251C43.9687 17.0606 44.0222 17.3106 44.2876 17.3106M45.6757 16.6284C45.6623 16.6893 45.6487 16.75 45.6348 16.8106C45.6052 16.9401 45.5257 17.9217 45.4751 17.9217C45.3532 17.9217 45.4132 17.2462 45.4404 17.1578C45.4984 16.9691 45.5793 16.7942 45.6757 16.6284ZM45.6757 16.6284C45.8446 16.3382 46.0613 16.0761 46.2876 15.8175C46.4222 15.6637 46.5156 15.4843 46.6128 15.308M46.6128 15.308C46.6992 15.1514 46.7886 14.9974 46.9126 14.8661C47.0126 14.7602 47.2876 14.221 47.2876 14.6231C47.2876 15.0382 47.2043 15.6301 47.0376 16.005C46.6005 16.9886 46.6653 18.1477 46.2251 19.1161C45.9869 19.6402 46.0538 19.1018 46.1348 18.8383C46.2541 18.4508 46.2193 18.0087 46.3501 17.6161C46.4415 17.3421 46.8385 15.3209 46.6626 15.3106C46.646 15.3096 46.6294 15.3087 46.6128 15.308ZM18.0376 15.8106C17.9948 15.4681 17.5737 15.7973 17.5098 15.9633C17.3454 16.3908 17.0996 16.8072 16.8608 17.2075M16.8608 17.2075C16.8151 17.2841 16.7697 17.3602 16.7251 17.4356C16.5831 17.6759 16.4421 17.9167 16.3022 18.158M16.8608 17.2075C17.3107 16.9815 17.9321 16.9506 18.3432 17.1856C18.7414 17.4131 18.1094 19.1846 18.0098 19.4633C17.6396 20.5 15.7589 21.8514 15.2759 20.7999M16.8608 17.2075C16.7376 17.2694 16.6273 17.3459 16.5376 17.4356C16.4491 17.5241 16.3681 17.621 16.2935 17.7245M16.3022 18.158C16.1027 18.5021 15.9056 18.847 15.7112 19.1925C15.6471 19.3065 15.5716 19.4143 15.4945 19.5212M16.3022 18.158C16.3079 18.6344 16.2915 19.1095 16.1626 19.5606C16.0395 19.9916 15.7738 20.7046 15.2759 20.7999M16.3022 18.158C16.3005 18.0134 16.2967 17.8687 16.2935 17.7245M15.4945 19.5212C15.3752 19.6866 15.2524 19.8498 15.163 20.0297M15.4945 19.5212C15.7082 18.9105 15.9236 18.237 16.2935 17.7245M15.4945 19.5212C15.4446 19.6637 15.3948 19.8028 15.3432 19.9356C15.2977 20.0524 15.238 20.2343 15.1804 20.4477M15.163 20.0297C15.1009 20.1548 15.055 20.2879 15.0376 20.4356C15.0146 20.6312 14.7917 20.7891 15.0932 20.8085M15.163 20.0297C15.1668 19.4737 15.1988 18.9804 15.3501 18.4356C15.4672 18.014 15.6626 17.5718 15.6626 17.13C15.6626 16.3911 16.2876 16.7915 16.2876 17.3106C16.2876 17.4477 16.2903 17.5858 16.2935 17.7245M15.163 20.0297C15.1627 20.072 15.1626 20.1147 15.1626 20.1578C15.1626 20.2636 15.1687 20.3601 15.1804 20.4477M15.0932 20.8085C15.1138 20.8099 15.1369 20.8106 15.1626 20.8106C15.2016 20.8106 15.2394 20.8069 15.2759 20.7999M15.0932 20.8085C15.12 20.6827 15.1499 20.5608 15.1804 20.4477M15.0932 20.8085C14.9688 21.3919 14.9104 22.0583 15.1626 22.3106C15.5955 22.7435 16.0647 22.8152 16.4966 22.4547M15.2759 20.7999C15.2315 20.7034 15.199 20.5867 15.1804 20.4477M16.4966 22.4547C16.529 22.4276 16.5612 22.3981 16.5932 22.3661C16.6933 22.266 17.16 20.9885 17.1348 20.9633C17.0352 20.8637 16.8382 21.5199 16.8154 21.5883C16.7172 21.8828 16.6077 22.1696 16.4966 22.4547ZM16.4966 22.4547C16.3836 22.7443 16.2689 23.0321 16.1626 23.3244C15.9144 24.0072 15.6543 24.6217 15.4828 25.2665M15.4828 25.2665C15.3639 25.7139 15.2876 26.176 15.2876 26.6856V25.7133C15.2876 25.5329 15.3119 25.282 15.3324 25.0103M15.4828 25.2665C15.5756 25.4387 15.6583 25.621 15.7321 25.8106C15.8419 26.0931 16.224 28.3952 15.5376 28.4356C14.7644 28.481 13.7938 28.3442 13.4821 27.4981C13.1479 26.5911 13.4991 25.3174 13.8154 24.4633C13.8555 24.355 13.954 24.1543 14.0862 23.9509M15.4828 25.2665C15.4353 25.1783 15.3852 25.0928 15.3324 25.0103M15.3324 25.0103C15.3748 24.4477 15.4011 23.7962 15.1626 23.4981C14.8131 23.0611 14.3714 23.5122 14.0862 23.9509M15.3324 25.0103C15.0207 24.5241 14.6138 24.1442 14.0862 23.9509M14.0862 23.9509C13.8383 23.8601 13.5637 23.8106 13.2598 23.8106C12.2942 23.8106 12.1206 24.7488 12.0446 25.6231C12.0384 25.6942 12.0309 25.7751 12.0234 25.8634M12.0234 25.8634C12.0168 25.9408 12.0101 26.0239 12.0042 26.111M12.0234 25.8634C12.1779 26.0385 12.3118 26.2183 12.4224 26.402M12.0234 25.8634C11.9789 25.813 11.9327 25.763 11.8848 25.7133C11.1 24.8994 9.77246 24.6818 8.8154 25.2828C8.61192 25.4105 8.43426 25.5589 8.28078 25.7237M12.0042 26.111C11.9551 26.8286 11.9544 27.8211 12.4404 28.1856C12.5187 28.2443 12.5902 28.2921 12.6552 28.3297M12.0042 26.111C12.1373 26.1888 12.281 26.2885 12.4224 26.402M12.0042 26.111C11.8888 26.0436 11.7814 25.9926 11.6904 25.9633C11.0316 25.7516 10.2389 25.8495 9.66562 26.2267M12.6552 28.3297C13.1704 28.6271 13.2876 28.2818 13.2876 27.63C13.2876 27.251 12.8663 26.7584 12.4224 26.402M12.6552 28.3297C12.5735 28.5515 12.4522 28.7747 12.2876 28.9981C12.1196 29.2261 11.8908 29.384 11.6327 29.4793M12.6552 28.3297C12.9002 27.6648 12.7896 27.0119 12.4224 26.402M9.66562 26.2267C9.49994 26.3357 9.35258 26.4681 9.23206 26.6231C9.04741 26.8605 8.97209 27.1981 8.97818 27.5525M9.66562 26.2267C10.5052 26.7035 11.1937 27.4651 11.2807 28.4217C11.3001 28.6348 11.3096 28.8552 11.3015 29.071M9.66562 26.2267C9.22392 25.9759 8.74043 25.8038 8.28078 25.7237M8.97818 27.5525C8.98812 28.1314 9.21517 28.7551 9.53762 29.0606C9.95644 29.4573 10.6345 29.6559 11.2443 29.5744M8.97818 27.5525C9.16478 27.6264 9.32697 27.6964 9.45429 27.755C10.1425 28.0719 10.796 28.518 11.3015 29.071M8.97818 27.5525C8.58699 27.3976 8.08849 27.2252 7.57895 27.1029M11.2443 29.5744C11.3782 29.5565 11.5088 29.5251 11.6327 29.4793M11.2443 29.5744C11.1163 30.1976 10.759 30.6856 9.9404 30.6856C9.88882 30.6856 9.83792 30.6846 9.78771 30.6826M11.2443 29.5744C11.2773 29.4136 11.295 29.2438 11.3015 29.071M11.6327 29.4793C12.0377 30.0471 12.2876 30.7054 12.2876 31.4356C12.2876 32.8133 10.5558 32.4871 9.53473 32.1421M11.6327 29.4793C11.5315 29.3375 11.4206 29.2013 11.3015 29.071M8.28078 25.7237C7.92053 26.1105 7.69355 26.5881 7.57895 27.1029M8.28078 25.7237C8.25986 25.7201 8.23899 25.7166 8.21817 25.7133C7.25664 25.5625 6.75008 26.1381 6.59238 26.9463M7.57895 27.1029C7.54522 27.2545 7.52122 27.4093 7.50643 27.5659M7.57895 27.1029C7.24585 27.023 6.90803 26.9645 6.59238 26.9463M7.50643 27.5659C7.47097 27.9416 7.48844 28.328 7.55151 28.7064C7.77094 30.023 8.58041 30.6358 9.78771 30.6826M7.50643 27.5659C7.58965 27.5733 7.68082 27.5919 7.78067 27.6231C8.7572 27.9282 9.76748 29.1937 9.78762 30.2411C9.79021 30.3756 9.79134 30.5251 9.78771 30.6826M7.50643 27.5659C6.89723 27.5122 6.7138 28.0611 6.66541 28.671M9.78771 30.6826C9.77678 31.1571 9.72263 31.7053 9.53473 32.1421M6.59238 26.9463C6.55542 27.1358 6.53762 27.338 6.53762 27.5467C6.53762 27.9086 6.58091 28.2894 6.66541 28.671M6.59238 26.9463C6.04302 26.9147 5.56084 27.0052 5.28762 27.3175C4.84955 27.8181 4.89641 28.7799 5.09522 29.6417M6.66541 28.671C6.79545 29.2582 7.02307 29.847 7.34064 30.3713M6.66541 28.671C6.63219 29.0897 6.66262 29.5372 6.66262 29.8383C6.66262 29.9018 6.66319 29.9652 6.66434 30.0285M7.34064 30.3713C7.76268 31.068 8.34357 31.6505 9.0654 31.9633C9.10153 31.979 9.14087 31.9954 9.18305 32.0124M7.34064 30.3713C7.74082 30.6024 8.06986 30.8428 8.21817 30.9911C8.5223 31.2952 8.85467 31.639 9.18305 32.0124M7.34064 30.3713C7.12963 30.2494 6.89884 30.1302 6.66434 30.0285M9.18305 32.0124C9.28526 32.0536 9.40419 32.098 9.53473 32.1421M9.18305 32.0124C9.27145 32.113 9.35956 32.2156 9.44675 32.3202M9.53473 32.1421C9.50816 32.2039 9.47892 32.2634 9.44675 32.3202M5.09522 29.6417C5.10777 29.6961 5.12092 29.7501 5.1346 29.8036M5.09522 29.6417C5.14739 29.6827 5.19907 29.724 5.24994 29.7651M5.09522 29.6417C4.31362 29.0279 3.42416 28.4793 3.54456 29.2619C3.66104 30.0191 4.17856 30.6203 4.59651 31.23M5.1346 29.8036C5.25651 30.2802 5.41989 30.714 5.5654 31.005C5.89327 31.6607 6.40812 32.2307 7.03939 32.5781M5.1346 29.8036C5.17128 29.788 5.20979 29.7753 5.24994 29.7651M5.1346 29.8036C4.98766 29.8659 4.87015 29.9732 4.79456 30.1369C4.64363 30.464 4.5843 30.8396 4.59651 31.23M7.03939 32.5781C7.3746 32.7625 7.74264 32.8841 8.13293 32.9225M7.03939 32.5781C6.90617 32.1117 6.80849 31.6345 6.74601 31.1497M7.03939 32.5781C7.31196 33.5323 7.73328 34.4411 8.30615 35.2761M8.13293 32.9225C8.22045 32.9311 8.30909 32.9356 8.39873 32.9356C8.91359 32.9356 9.24042 32.6844 9.44675 32.3202M8.13293 32.9225C8.46916 33.5362 8.65508 34.1958 8.53067 34.88C8.49431 35.08 8.41522 35.2064 8.30615 35.2761M8.13293 32.9225C7.77616 32.2714 7.25013 31.6719 6.74601 31.1497M9.44675 32.3202C10.3544 33.4091 11.1626 34.709 11.1626 35.9981C11.1626 36.4545 11.1588 36.6591 10.9718 36.7475M6.66434 30.0285C6.67116 30.4056 6.69834 30.7799 6.74601 31.1497M6.66434 30.0285C6.15566 29.8077 5.62952 29.6693 5.24994 29.7651M6.74601 31.1497C6.55412 30.9509 6.3654 30.7633 6.1904 30.5883C6.12301 30.5209 5.72137 30.1467 5.24994 29.7651M8.30615 35.2761C8.39606 35.4072 8.4897 35.5364 8.58709 35.6637M8.30615 35.2761C8.25175 35.3109 8.1899 35.3316 8.12217 35.3402M8.58709 35.6637C8.58912 35.6664 8.59115 35.669 8.59317 35.6717C9.0408 36.2555 9.66921 36.8106 10.4404 36.8106C10.6992 36.8106 10.8653 36.7979 10.9718 36.7475M8.58709 35.6637C8.42988 35.5699 8.27362 35.4594 8.12217 35.3402M8.58709 35.6637C8.97809 35.897 9.37496 36.0267 9.71817 35.9286C10.2496 35.7768 10.6542 36.1787 10.9718 36.7475M10.9718 36.7475C11.3751 37.4695 11.6383 38.4603 11.8432 38.9286C11.9875 39.2585 12.0525 39.7597 12.3501 39.9911C12.5614 40.1555 12.8096 40.2831 13.0098 40.4633C13.2703 40.6978 13.4126 41.5998 13.4126 40.7411C13.4126 40.199 13.3934 39.6519 13.3918 39.1066M4.59651 31.23C4.63025 32.3086 5.20996 33.4996 5.91262 34.0883C6.19089 34.3215 7.44779 35.4264 8.12217 35.3402M4.59651 31.23C4.61648 31.2592 4.63622 31.2883 4.65567 31.3175C5.32729 32.3249 6.09621 33.2246 6.89873 34.1439C7.15086 34.4327 7.60887 34.9362 8.12217 35.3402M13.3918 39.1066C13.3915 39.014 13.3918 38.9214 13.3927 38.8288M13.3918 39.1066C12.6641 37.9219 12.3883 35.9598 13.3501 34.9981C13.6759 34.6723 14.0775 34.3514 14.5654 34.4356C14.9476 34.5014 15.132 34.8034 15.2193 35.1688M13.3918 39.1066C13.5301 39.3317 13.6846 39.5288 13.8501 39.6856C15.2491 41.0109 16.9316 41.6856 18.8571 41.6856C19.1436 41.6856 19.7569 41.7525 20.065 41.5565M13.3927 38.8288C13.3935 38.7465 13.3949 38.6643 13.397 38.5821M13.3927 38.8288C13.3769 38.7591 13.3782 38.6774 13.397 38.5821M13.3927 38.8288C13.4528 39.0941 13.7597 39.1856 14.2876 39.1856C15.2226 39.1856 15.6626 38.6797 15.6626 37.6856C15.6626 37.457 15.756 37.0363 15.5376 36.9078C15.4543 36.8588 15.3663 36.7893 15.2833 36.7077M13.397 38.5821C13.4002 38.4497 13.4053 38.3174 13.4126 38.1856C13.4325 37.8276 13.7483 37.3776 14.0662 36.9775M13.397 38.5821C13.4191 38.4696 13.4658 38.3382 13.5376 38.1856C13.7178 37.8026 13.8788 37.3835 14.0662 36.9775M14.0662 36.9775C14.1785 36.8361 14.2911 36.701 14.391 36.5783M14.0662 36.9775C14.1665 36.7603 14.2743 36.5468 14.3967 36.3446M14.391 36.5783C14.471 36.48 14.543 36.3897 14.6001 36.3106C14.6884 36.1883 14.7859 36.0658 14.8907 35.9449M14.391 36.5783C14.39 36.5003 14.3919 36.422 14.3967 36.3446M14.391 36.5783C14.3956 36.9308 14.4617 37.2766 14.6071 37.505C14.6528 37.5769 14.9569 38.3242 15.0376 38.1022C15.1934 37.6738 15.2657 37.173 15.2833 36.7077M14.8907 35.9449C15.0107 35.8064 15.1404 35.67 15.277 35.5383M14.8907 35.9449C14.898 36.0075 14.9073 36.0679 14.9196 36.1231C14.9636 36.3214 15.113 36.5402 15.2833 36.7077M14.8907 35.9449C14.8812 35.8641 14.8749 35.7797 14.8696 35.6983M15.277 35.5383C15.6985 35.1321 16.1864 34.7709 16.6626 34.5328C17.2479 34.2401 17.7947 33.6002 18.4682 33.5606C19.2773 33.513 20.4204 33.1781 21.1071 32.7411C21.6307 32.4079 22.4196 32.0042 23.0376 31.9356C23.3135 31.9049 24.1506 31.2089 23.6071 31.0536C22.9963 30.8791 22.3421 30.8106 21.6626 30.8106C20.6462 30.8106 19.8383 31.5297 18.989 32.0467C18.5483 32.3149 18.0098 32.4495 17.5932 32.755C17.1555 33.076 16.7528 33.4401 16.3154 33.755C15.8679 34.0772 15.5436 34.6436 15.2193 35.1688M15.277 35.5383C15.3083 35.8869 15.2876 36.2415 15.2876 36.4772C15.2876 36.5527 15.2862 36.6297 15.2833 36.7077M15.277 35.5383C15.2657 35.4124 15.2476 35.2873 15.2193 35.1688M15.2193 35.1688C15.1046 35.3547 14.9898 35.5354 14.8696 35.6983M14.8696 35.6983C14.8246 35.7593 14.7789 35.8177 14.7321 35.8731C14.6078 36.0199 14.4974 36.1784 14.3967 36.3446M14.8696 35.6983C14.8425 35.2802 14.8416 34.9392 14.5654 35.5606C14.475 35.764 14.4152 36.0479 14.3967 36.3446M20.065 41.5565C20.1162 41.524 20.159 41.4841 20.1904 41.4356C20.2138 41.3994 20.2442 41.3462 20.2758 41.2905M20.065 41.5565C19.9636 41.7417 19.8917 41.943 19.8465 42.162M20.065 41.5565C20.1177 41.4602 20.1784 41.3683 20.2474 41.2805M20.2758 41.2905C20.3018 41.2448 20.3286 41.1974 20.353 41.1566M20.2758 41.2905C20.3434 41.3111 20.3894 41.298 20.4057 41.2411C20.4334 41.1441 20.4451 41.0883 20.4452 41.0623M20.2758 41.2905C20.2667 41.2878 20.2573 41.2844 20.2474 41.2805M20.353 41.1566C20.3871 41.0996 20.4165 41.0553 20.4324 41.0459M20.353 41.1566C20.3158 41.1969 20.2807 41.2382 20.2474 41.2805M20.353 41.1566C20.3825 41.1246 20.4132 41.0931 20.4452 41.0623M20.4324 41.0459C20.4363 41.0437 20.4394 41.0434 20.4415 41.0455M20.4324 41.0459C20.261 41.0527 20.0889 41.0575 19.9162 41.0595M20.4324 41.0459C20.4355 41.0458 20.4385 41.0457 20.4415 41.0455M20.4415 41.0455C20.444 41.0479 20.4453 41.0534 20.4452 41.0623M20.4415 41.0455C20.4489 41.0452 20.4563 41.0449 20.4637 41.0446M20.4452 41.0623C20.4513 41.0564 20.4575 41.0505 20.4637 41.0446M20.2474 41.2805C20.1612 41.2459 20.0465 41.1667 19.9162 41.0595M19.9162 41.0595C19.8193 40.9796 19.7138 40.8842 19.605 40.7801M19.9162 41.0595C19.8549 41.0602 19.7935 41.0606 19.7321 41.0606C19.4778 41.0606 19.4914 40.9361 19.605 40.7801M19.605 40.7801C19.206 40.398 18.7637 39.8985 18.5438 39.6193M19.605 40.7801C19.7543 40.5752 20.0764 40.316 20.1904 40.2133C21.1278 39.3697 21.7458 38.4634 22.9265 37.8731C24.0643 37.3042 25.4783 36.7448 26.3848 35.8383C26.5832 35.6399 27.1726 35.1043 26.8987 34.7619C26.7966 34.6343 25.1972 35.4454 25.0515 35.4981C24.5576 35.6764 24.0648 35.8803 23.5751 36.0992M18.5438 39.6193C18.4772 39.5347 18.431 39.4703 18.4126 39.4356C18.3326 39.2844 18.2573 39.1263 18.1908 38.9635M18.5438 39.6193C19.0605 39.4079 19.5984 39.2409 20.0654 38.9356C20.7857 38.4646 21.7642 38.1926 22.364 37.5467C22.8025 37.0744 23.1774 36.7075 23.5376 36.1578C23.5502 36.1385 23.5627 36.119 23.5751 36.0992M18.5438 39.6193C18.2824 39.7262 18.0263 39.8446 17.7876 39.9981C17.6792 40.0678 17.2997 40.5467 17.2251 40.5467C16.8965 40.5467 17.5885 39.5112 17.6348 39.4633C17.809 39.2831 17.9953 39.1176 18.1908 38.9635M18.1908 38.9635C17.8825 38.2093 17.7626 37.3539 18.2321 36.6161C18.8789 35.5996 20.1066 35.0617 21.0932 34.4356C21.774 34.0035 23.2865 33.4356 24.1001 33.4356C24.5783 33.4356 24.5112 34.6701 24.2876 34.9356C24.0128 35.2619 23.8103 35.7246 23.5751 36.0992M18.1908 38.9635C18.8852 38.4159 19.6945 38.0136 20.4821 37.6161C21.4872 37.1088 22.5242 36.5692 23.5751 36.0992M20.4637 41.0446C21.6757 40.9946 22.8618 40.8422 24.0793 40.8106C25.0854 40.7844 26.0827 40.7064 27.0924 40.689M20.4637 41.0446C20.6252 40.8924 20.8179 40.7546 21.0446 40.63C22.3073 39.9355 23.9979 39.9355 25.4017 39.9356H25.4265C26.0369 39.9356 26.6097 40.2635 27.0924 40.689M27.0924 40.689C27.2221 40.6868 27.352 40.6856 27.4821 40.6856C28.8369 40.6856 29.9926 40.9662 31.3085 41.1856C32.1945 41.3332 32.4642 41.3825 32.4126 42.3106C32.3693 43.0898 31.1116 43.7103 30.6071 44.1231C30.5106 44.202 30.4117 44.2805 30.3108 44.3586M27.0924 40.689C27.3777 40.9405 27.6316 41.226 27.8432 41.4981C28.0177 41.7225 28.097 42.0951 28.1329 42.4691M30.3108 44.3586C29.5904 44.9162 28.7681 45.4493 28.0098 45.9078C27.8526 46.0029 27.6871 46.0919 27.5167 46.1755M30.3108 44.3586C30.4522 44.1124 30.4695 43.8535 30.2251 43.6092C29.8358 43.2199 29.3849 42.4356 28.7876 42.4356C28.568 42.4356 28.3506 42.45 28.1329 42.4691M30.3108 44.3586C30.0822 44.7567 29.5291 45.1216 29.2321 45.3383C28.7083 45.7205 28.1023 45.9142 27.5167 46.1755M27.5167 46.1755C27.4323 46.2169 27.3467 46.257 27.2603 46.2958M27.5167 46.1755C27.4307 46.2139 27.3451 46.2537 27.2603 46.2958M27.2603 46.2958C26.8128 46.4969 26.3432 46.6647 25.9057 46.8106C25.5803 46.919 25.4641 47.2227 25.1001 47.3036C24.8101 47.368 24.5946 47.4356 24.2876 47.4356C22.8675 47.4356 21.6738 46.4196 20.7244 45.3392M27.2603 46.2958C27.2323 46.3097 27.2043 46.3239 27.1765 46.3383C26.3415 46.7713 25.4162 47.399 24.8015 48.1161C24.5413 48.4197 24.028 48.8106 23.6001 48.8106C23.1337 48.8106 23.2852 48.5872 23.0376 48.3106C22.6139 47.8369 22.2754 47.437 21.7876 46.9981C21.3859 46.6365 21.2887 46.2337 20.9126 45.8106C20.7848 45.6668 20.7286 45.5065 20.7244 45.3392M20.7244 45.3392C20.6743 45.2821 20.6248 45.2248 20.576 45.1675M20.7244 45.3392C20.7234 45.2984 20.7255 45.2572 20.7304 45.2158M20.576 45.1675C20.4072 44.9693 20.2466 44.7706 20.0944 44.5773M20.576 45.1675C20.6265 45.1858 20.678 45.2018 20.7304 45.2158M20.576 45.1675C20.3368 45.0809 20.1174 44.9421 19.9095 44.7199M20.0944 44.5773C20.0753 44.5531 20.0564 44.529 20.0376 44.505C19.6885 44.0588 19.7876 43.3115 19.7876 42.7828C19.7876 42.5616 19.8066 42.3549 19.8465 42.162M20.0944 44.5773C20.6029 44.208 21.2332 43.9214 21.7543 43.7282M20.0944 44.5773C20.0307 44.6235 19.9689 44.6711 19.9095 44.7199M19.8465 42.162C19.5968 42.2249 19.2905 42.2673 19.1001 42.3731C18.6241 42.6375 19.4358 44.0735 19.6626 44.4078C19.7434 44.5268 19.8255 44.6302 19.9095 44.7199M19.8465 42.162C19.8941 42.1499 19.9397 42.1372 19.9821 42.1231C20.5745 41.9256 21.1983 41.9227 21.8154 41.9356C22.7415 41.9548 23.6226 42.3702 24.5376 42.4356C25.3118 42.4909 26.0655 42.5606 26.8432 42.5606C27.2866 42.5606 27.7104 42.5061 28.1329 42.4691M28.1329 42.4691C28.1611 42.7632 28.1626 43.0581 28.1626 43.2828C28.1626 44.0879 26.174 44.0803 25.6001 44.255C24.4482 44.6056 23.0635 45.3106 21.8432 45.3106C21.4224 45.3106 21.0577 45.3029 20.7304 45.2158M20.7304 45.2158C20.7949 44.6674 21.3501 44.0702 21.739 43.7411C21.7441 43.7368 21.7492 43.7325 21.7543 43.7282M19.9095 44.7199C19.472 45.0795 19.1626 45.5083 19.1626 45.9981C19.1626 46.3608 20.0399 46.5628 20.2876 46.8106C20.7206 47.2435 20.9083 48.3106 21.5376 48.3106M21.7543 43.7282C22.0898 43.4437 22.5851 43.0071 23.0376 42.9425C23.5415 42.8705 22.5044 43.4861 22.3432 43.5328C22.1786 43.5804 21.9764 43.6458 21.7543 43.7282ZM55.2876 45.9356C53.9023 45.9356 52.7562 46.4572 51.5447 46.994M51.5447 46.994C51.3049 47.1002 51.0626 47.2071 50.8154 47.3106C49.9447 47.675 48.602 48.5471 49.7695 49.2088M51.5447 46.994C53.3154 46.7975 55.0996 46.6856 56.9126 46.6856C57.3884 46.6856 58.1978 46.5521 58.1626 47.1856C58.1337 47.706 56.3279 48.2608 55.9682 48.4356C54.2908 49.2503 51.7642 50.1599 49.9126 49.2828C49.8612 49.2584 49.8136 49.2338 49.7695 49.2088M51.5447 46.994C48.8113 47.2973 46.1101 47.8022 43.3848 48.4078C43.1512 48.4597 42.7434 48.5155 42.5654 48.7133C42.358 48.9438 42.9236 49.0178 43.0098 49.0883C43.4527 49.4507 44.3134 49.6018 44.8709 49.7133C45.725 49.8841 46.6689 50.0364 47.5376 50.0606C47.8426 50.069 48.8325 50.2194 49.0098 49.9356C49.1299 49.7435 49.3793 49.7956 49.5098 49.5606C49.5838 49.4274 49.6723 49.3153 49.7695 49.2088M49.7695 49.2088C49.8535 49.1168 49.9441 49.029 50.0376 48.9356C50.4266 48.5466 50.9126 48.2823 50.9126 47.6856M17.2876 15.1856C16.9112 15.0209 16.9749 15.9789 16.8848 16.2828C16.7191 16.8422 16.3177 17.3614 16.1696 17.88C16.0295 18.3703 16.1263 17.1668 16.1557 17.005C16.2467 16.5043 16.4126 16.0764 16.4126 15.5606" stroke="#567B44" stroke-width="3" stroke-linecap="round"/>
</g>
</g>
<defs>
<clipPath id="clip0_1_2">
<rect width="62" height="60" fill="white"/>
</clipPath>
</defs>
</svg>
